<?xml version="1.0" encoding="UTF-8" standalone="no"?>
<svg  version="1.1" xmlns="http://www.w3.org/2000/svg" width="217.47px" height="85.4142px">
<path d="M199.345 123.662 C199.345 122.337, 200.419 121.262, 201.745 121.262 C203.071 121.262, 204.145 122.337, 204.145 123.662 C204.145 124.988, 203.071 126.062, 201.745 126.062 C200.419 126.062, 199.345 124.988, 199.345 123.662 Z " stroke="black" stroke-width="1" fill="none" />

<path d="M141.745 123.662 C141.745 122.337, 142.819 121.262, 144.145 121.262 C145.471 121.262, 146.545 122.337, 146.545 123.662 C146.545 124.988, 145.471 126.062, 144.145 126.062 C142.819 126.062, 141.745 124.988, 141.745 123.662 Z " stroke="black" stroke-width="1" fill="none" />

<path d="M84.1451 123.662 C84.1451 122.337, 85.2195 121.262, 86.5451 121.262 C87.8707 121.262, 88.9451 122.337, 88.9451 123.662 C88.9451 124.988, 87.8707 126.062, 86.5451 126.062 C85.2195 126.062, 84.1451 124.988, 84.1451 123.662 Z " stroke="black" stroke-width="1" fill="none" />

<path d="M199.345 46.8621 C199.345 45.5367, 200.419 44.4621, 201.745 44.4621 C203.071 44.4621, 204.145 45.5367, 204.145 46.8621 C204.145 48.1875, 203.071 49.2621, 201.745 49.2621 C200.419 49.2621, 199.345 48.1875, 199.345 46.8621 Z " stroke="black" stroke-width="1" fill="none" />

<path d="M112.945 46.8621 C112.945 45.5367, 114.019 44.4621, 115.345 44.4621 C116.671 44.4621, 117.745 45.5367, 117.745 46.8621 C117.745 48.1875, 116.671 49.2621, 115.345 49.2621 C114.019 49.2621, 112.945 48.1875, 112.945 46.8621 Z " stroke="black" stroke-width="1" fill="none" />

<path d="M26.5451 123.662 C26.5451 122.337, 27.6195 121.262, 28.9451 121.262 C30.2707 121.262, 31.3451 122.337, 31.3451 123.662 C31.3451 124.988, 30.2707 126.062, 28.9451 126.062 C27.6195 126.062, 26.5451 124.988, 26.5451 123.662 Z " stroke="black" stroke-width="1" fill="none" />

<path d="M-31.0549 123.662 C-31.0549 122.337, -29.9805 121.262, -28.6549 121.262 C-27.3293 121.262, -26.2549 122.337, -26.2549 123.662 C-26.2549 124.988, -27.3293 126.062, -28.6549 126.062 C-29.9805 126.062, -31.0549 124.988, -31.0549 123.662 Z " stroke="black" stroke-width="1" fill="none" />

<path d="M55.3451 46.8621 C55.3451 45.5367, 56.4195 44.4621, 57.7451 44.4621 C59.0707 44.4621, 60.1451 45.5367, 60.1451 46.8621 C60.1451 48.1875, 59.0707 49.2621, 57.7451 49.2621 C56.4195 49.2621, 55.3451 48.1875, 55.3451 46.8621 Z " stroke="black" stroke-width="1" fill="none" />

<path d="M-2.2549 46.8621 C-2.2549 45.5367, -1.18052 44.4621, 0.145106 44.4621 C1.47073 44.4621, 2.54511 45.5367, 2.54511 46.8621 C2.54511 48.1875, 1.47073 49.2621, 0.145106 49.2621 C-1.18052 49.2621, -2.2549 48.1875, -2.2549 46.8621 Z " stroke="black" stroke-width="1" fill="none" />

<path d="M-88.6549 123.662 C-88.6549 122.337, -87.5805 121.262, -86.2549 121.262 C-84.9293 121.262, -83.8549 122.337, -83.8549 123.662 C-83.8549 124.988, -84.9293 126.062, -86.2549 126.062 C-87.5805 126.062, -88.6549 124.988, -88.6549 123.662 Z " stroke="black" stroke-width="1" fill="none" />

<path d="M-146.255 123.662 C-146.255 122.337, -145.181 121.262, -143.855 121.262 C-142.529 121.262, -141.455 122.337, -141.455 123.662 C-141.455 124.988, -142.529 126.062, -143.855 126.062 C-145.181 126.062, -146.255 124.988, -146.255 123.662 Z " stroke="black" stroke-width="1" fill="none" />

<path d="M-203.855 123.662 C-203.855 122.337, -202.781 121.262, -201.455 121.262 C-200.129 121.262, -199.055 122.337, -199.055 123.662 C-199.055 124.988, -200.129 126.062, -201.455 126.062 C-202.781 126.062, -203.855 124.988, -203.855 123.662 Z " stroke="black" stroke-width="1" fill="none" />

<path d="M-203.855 46.8621 C-203.855 45.5367, -202.781 44.4621, -201.455 44.4621 C-200.129 44.4621, -199.055 45.5367, -199.055 46.8621 C-199.055 48.1875, -200.129 49.2621, -201.455 49.2621 C-202.781 49.2621, -203.855 48.1875, -203.855 46.8621 Z " stroke="black" stroke-width="1" fill="none" />

<path d="M-117.455 46.8621 C-117.455 45.5367, -116.381 44.4621, -115.055 44.4621 C-113.729 44.4621, -112.655 45.5367, -112.655 46.8621 C-112.655 48.1875, -113.729 49.2621, -115.055 49.2621 C-116.381 49.2621, -117.455 48.1875, -117.455 46.8621 Z " stroke="black" stroke-width="1" fill="none" />

<path d="M-59.8549 46.8621 C-59.8549 45.5367, -58.7805 44.4621, -57.4549 44.4621 C-56.1293 44.4621, -55.0549 45.5367, -55.0549 46.8621 C-55.0549 48.1875, -56.1293 49.2621, -57.4549 49.2621 C-58.7805 49.2621, -59.8549 48.1875, -59.8549 46.8621 Z " stroke="black" stroke-width="1" fill="none" />

<path d="M-110.032 19.6084 C-110.496 18.0849, -110.96 16.5614, -111.424 15.0378 C-113.758 15.0378, -116.091 15.0378, -118.425 15.0378 C-118.889 16.5614, -119.353 18.0849, -119.817 19.6084 C-121.279 19.6084, -122.741 19.6084, -124.204 19.6084 C-121.945 13.1816, -119.686 6.75483, -117.427 0.328043 C-115.767 0.328043, -114.108 0.328043, -112.449 0.328043 C-110.181 6.75483, -107.913 13.1816, -105.646 19.6084 C-107.108 19.6084, -108.57 19.6084, -110.032 19.6084 Z " stroke="black" stroke-width="1" fill="none" />
<path d="M-112.396 11.6231 C-112.86 10.1346, -113.324 8.64609, -113.788 7.1576 C-113.876 6.8599, -113.992 6.47683, -114.137 6.00839 C-114.281 5.53996, -114.425 5.06276, -114.57 4.57681 C-114.714 4.09086, -114.83 3.6684, -114.918 3.30941 C-115.006 3.6684, -115.126 4.11275, -115.279 4.64248 C-115.432 5.17221, -115.579 5.67348, -115.719 6.1463 C-115.859 6.61911, -115.96 6.95621, -116.021 7.1576 C-116.481 8.64609, -116.941 10.1346, -117.4 11.6231 C-115.732 11.6231, -114.064 11.6231, -112.396 11.6231 Z " stroke="black" stroke-width="1" fill="none" />


<path d="M-64.7112 0.0133455 C-62.7193 0.0133455, -60.7273 0.0133455, -58.7354 0.0133455 C-56.1787 0.0133455, -54.2436 0.372335, -52.9302 1.09031 C-51.6169 1.80829, -50.9602 3.06913, -50.9602 4.87284 C-50.9602 5.59957, -51.0762 6.25626, -51.3082 6.8429 C-51.5403 7.42954, -51.8752 7.91111, -52.313 8.28761 C-52.7507 8.66411, -53.2849 8.90928, -53.9153 9.0231 C-53.9153 9.06688, -53.9153 9.11066, -53.9153 9.15444 C-53.2761 9.28578, -52.6982 9.51124, -52.1816 9.83083 C-51.665 10.1504, -51.2513 10.6145, -50.9405 11.223 C-50.6296 11.8315, -50.4742 12.6393, -50.4742 13.6462 C-50.4742 14.8107, -50.7588 15.8089, -51.3279 16.6407 C-51.8971 17.4725, -52.7092 18.1095, -53.7642 18.5516 C-54.8193 18.9938, -56.0736 19.2149, -57.5271 19.2149 C-59.9218 19.2149, -62.3165 19.2149, -64.7112 19.2149 C-64.7112 12.8144, -64.7112 6.41386, -64.7112 0.0133455 Z " stroke="black" stroke-width="1" fill="none" />
<path d="M-60.6398 7.61779 C-59.8517 7.61779, -59.0637 7.61779, -58.2757 7.61779 C-57.0936 7.61779, -56.275 7.43173, -55.8197 7.05961 C-55.3644 6.68748, -55.1367 6.13805, -55.1367 5.41132 C-55.1367 4.67583, -55.406 4.14829, -55.9444 3.8287 C-56.4829 3.50911, -57.3344 3.34932, -58.499 3.34932 C-59.2126 3.34932, -59.9262 3.34932, -60.6398 3.34932 C-60.6398 4.77214, -60.6398 6.19497, -60.6398 7.61779 Z " stroke="black" stroke-width="1" fill="none" />
<path d="M-60.6398 10.8487 C-60.6398 12.5167, -60.6398 14.1847, -60.6398 15.8527 C-59.7554 15.8527, -58.8711 15.8527, -57.9867 15.8527 C-56.7609 15.8527, -55.9072 15.6162, -55.4257 15.1434 C-54.9441 14.6706, -54.7033 14.0358, -54.7033 13.239 C-54.7033 12.7662, -54.8084 12.3503, -55.0185 11.9913 C-55.2287 11.6323, -55.5811 11.3522, -56.0758 11.1508 C-56.5705 10.9494, -57.2512 10.8487, -58.1181 10.8487 C-58.9586 10.8487, -59.7992 10.8487, -60.6398 10.8487 Z " stroke="black" stroke-width="1" fill="none" />


<path d="M1.37207 3.38851 C0.592797 3.38851, -0.0967248 3.53955, -0.6965 3.84162 C-1.29627 4.1437, -1.79974 4.5793, -2.20688 5.14843 C-2.61403 5.71756, -2.92267 6.40489, -3.13281 7.21043 C-3.34295 8.01597, -3.44802 8.9222, -3.44802 9.92912 C-3.44802 11.2863, -3.27947 12.4442, -2.94237 13.403 C-2.60527 14.3618, -2.08211 15.0929, -1.37289 15.5963 C-0.663665 16.0998, 0.25132 16.3515, 1.37207 16.3515 C2.15134 16.3515, 2.93279 16.264, 3.71644 16.0889 C4.50009 15.9137, 5.35159 15.6642, 6.27096 15.3402 C6.27096 16.4785, 6.27096 17.6167, 6.27096 18.755 C5.42164 19.1052, 4.58546 19.357, 3.76241 19.5102 C2.93936 19.6634, 2.01562 19.74, 0.991188 19.74 C-0.987631 19.74, -2.61403 19.3307, -3.888 18.512 C-5.16198 17.6934, -6.10542 16.5463, -6.71833 15.071 C-7.33124 13.5956, -7.63769 11.8729, -7.63769 9.90285 C-7.63769 8.44938, -7.44068 7.1185, -7.04667 5.91019 C-6.65266 4.70188, -6.07477 3.65556, -5.31301 2.77122 C-4.55126 1.88688, -3.61 1.20393, -2.48926 0.722357 C-1.36851 0.240786, -0.0814021 0, 1.37207 0 C2.32645 0, 3.28303 0.120393, 4.24179 0.361178 C5.20056 0.601964, 6.11773 0.932497, 6.99331 1.35278 C6.55552 2.45601, 6.11773 3.55925, 5.67994 4.66248 C4.96196 4.32101, 4.2396 4.02331, 3.51287 3.76939 C2.78613 3.51547, 2.07253 3.38851, 1.37207 3.38851 Z " stroke="black" stroke-width="1" fill="none" />


<path d="M65.8769 9.84611 C65.8769 12.0088, 65.4632 13.8147, 64.6358 15.2638 C63.8083 16.7129, 62.611 17.803, 61.0437 18.5341 C59.4764 19.2652, 57.5895 19.6308, 55.383 19.6308 C53.5706 19.6308, 51.7581 19.6308, 49.9457 19.6308 C49.9457 13.2302, 49.9457 6.82973, 49.9457 0.42921 C51.9551 0.42921, 53.9646 0.42921, 55.9741 0.42921 C57.9879 0.42921, 59.7347 0.786011, 61.2144 1.49961 C62.6942 2.21321, 63.8412 3.26829, 64.6555 4.66485 C65.4698 6.0614, 65.8769 7.78849, 65.8769 9.84611 Z " stroke="black" stroke-width="1" fill="none" />
<path d="M61.6478 9.95118 C61.6478 8.53274, 61.4399 7.36602, 61.024 6.45104 C60.6081 5.53605, 59.9952 4.85966, 59.1853 4.42187 C58.3753 3.98408, 57.375 3.76518, 56.1842 3.76518 C55.4618 3.76518, 54.7395 3.76518, 54.0171 3.76518 C54.0171 7.93296, 54.0171 12.1007, 54.0171 16.2685 C54.5994 16.2685, 55.1817 16.2685, 55.7639 16.2685 C57.7515 16.2685, 59.229 15.7388, 60.1966 14.6793 C61.1641 13.6199, 61.6478 12.0438, 61.6478 9.95118 Z " stroke="black" stroke-width="1" fill="none" />


<path d="M120.707 19.4117 C117.021 19.4117, 113.335 19.4117, 109.649 19.4117 C109.649 13.0112, 109.649 6.61071, 109.649 0.210193 C113.335 0.210193, 117.021 0.210193, 120.707 0.210193 C120.707 1.32218, 120.707 2.43418, 120.707 3.54617 C118.378 3.54617, 116.049 3.54617, 113.72 3.54617 C113.72 4.95148, 113.72 6.35679, 113.72 7.7621 C115.887 7.7621, 118.054 7.7621, 120.221 7.7621 C120.221 8.87409, 120.221 9.98609, 120.221 11.0981 C118.054 11.0981, 115.887 11.0981, 113.72 11.0981 C113.72 12.7486, 113.72 14.399, 113.72 16.0495 C116.049 16.0495, 118.378 16.0495, 120.707 16.0495 C120.707 17.1702, 120.707 18.291, 120.707 19.4117 Z " stroke="black" stroke-width="1" fill="none" />


<path d="M-199.256 96.3551 C-200.609 96.3551, -201.961 96.3551, -203.314 96.3551 C-203.314 92.6514, -203.314 88.9477, -203.314 85.244 C-203.314 84.9375, -203.31 84.5588, -203.301 84.1079 C-203.292 83.657, -203.279 83.1929, -203.262 82.7157 C-203.244 82.2385, -203.227 81.8073, -203.209 81.4221 C-203.305 81.5359, -203.5 81.7307, -203.793 82.0065 C-204.087 82.2823, -204.36 82.5297, -204.614 82.7486 C-205.35 83.3396, -206.085 83.9306, -206.821 84.5216 C-207.473 83.7073, -208.125 82.893, -208.778 82.0788 C-206.716 80.437, -204.654 78.7953, -202.592 77.1536 C-201.48 77.1536, -200.368 77.1536, -199.256 77.1536 C-199.256 83.5541, -199.256 89.9546, -199.256 96.3551 Z " stroke="black" stroke-width="1" fill="none" />


<path d="M-136.717 96.9524 C-141.192 96.9524, -145.666 96.9524, -150.14 96.9524 C-150.14 96.0112, -150.14 95.0699, -150.14 94.1287 C-148.533 92.5044, -146.927 90.8802, -145.32 89.256 C-144.348 88.2579, -143.567 87.4239, -142.976 86.754 C-142.385 86.0842, -141.956 85.4735, -141.689 84.9219 C-141.422 84.3703, -141.288 83.7793, -141.288 83.1488 C-141.288 82.3871, -141.5 81.8158, -141.925 81.4349 C-142.35 81.054, -142.917 80.8636, -143.626 80.8636 C-144.37 80.8636, -145.092 81.0343, -145.793 81.3758 C-146.493 81.7173, -147.224 82.2032, -147.986 82.8336 C-148.722 81.9624, -149.457 81.0912, -150.193 80.22 C-149.641 79.7472, -149.057 79.3006, -148.439 78.8804 C-147.822 78.4601, -147.104 78.1208, -146.285 77.8625 C-145.467 77.6042, -144.484 77.4751, -143.337 77.4751 C-142.076 77.4751, -140.993 77.7027, -140.086 78.158 C-139.18 78.6133, -138.482 79.2328, -137.991 80.0164 C-137.501 80.8001, -137.256 81.6866, -137.256 82.676 C-137.256 83.7355, -137.466 84.703, -137.886 85.5786 C-138.307 86.4542, -138.917 87.321, -139.719 88.1791 C-140.52 89.0371, -141.485 89.9871, -142.615 91.0291 C-143.438 91.804, -144.261 92.5789, -145.084 93.3538 C-145.084 93.4151, -145.084 93.4763, -145.084 93.5376 C-142.295 93.5376, -139.506 93.5376, -136.717 93.5376 C-136.717 94.6759, -136.717 95.8142, -136.717 96.9524 Z " stroke="black" stroke-width="1" fill="none" />


<path d="M-80.5929 82.0355 C-80.5929 82.9198, -80.7767 83.6859, -81.1445 84.3339 C-81.5122 84.9818, -82.0091 85.5115, -82.6352 85.9231 C-83.2612 86.3346, -83.9639 86.6367, -84.7431 86.8293 C-84.7431 86.8555, -84.7431 86.8818, -84.7431 86.9081 C-83.2021 87.1007, -82.031 87.5735, -81.2298 88.3265 C-80.4287 89.0795, -80.0281 90.0865, -80.0281 91.3473 C-80.0281 92.468, -80.3017 93.4706, -80.849 94.3549 C-81.3962 95.2393, -82.239 95.9354, -83.3772 96.4432 C-84.5155 96.951, -85.9821 97.2049, -87.777 97.2049 C-88.8365 97.2049, -89.8237 97.1196, -90.7387 96.9488 C-91.6537 96.7781, -92.5139 96.5176, -93.3195 96.1674 C-93.3195 95.016, -93.3195 93.8646, -93.3195 92.7132 C-92.4964 93.1335, -91.634 93.4509, -90.7321 93.6654 C-89.8303 93.8799, -88.9897 93.9872, -88.2104 93.9872 C-86.757 93.9872, -85.7391 93.7354, -85.1568 93.232 C-84.5746 92.7285, -84.2834 92.0215, -84.2834 91.1109 C-84.2834 90.5768, -84.4192 90.1259, -84.6906 89.7581 C-84.962 89.3904, -85.4326 89.1102, -86.1025 88.9175 C-86.7723 88.7249, -87.707 88.6286, -88.9065 88.6286 C-89.3925 88.6286, -89.8784 88.6286, -90.3644 88.6286 C-90.3644 87.591, -90.3644 86.5535, -90.3644 85.5159 C-89.8697 85.5159, -89.375 85.5159, -88.8803 85.5159 C-87.6982 85.5159, -86.7986 85.4043, -86.1813 85.181 C-85.564 84.9577, -85.1437 84.6513, -84.9204 84.2616 C-84.6972 83.872, -84.5855 83.4276, -84.5855 82.9286 C-84.5855 82.2456, -84.7957 81.7115, -85.2159 81.3262 C-85.6362 80.941, -86.3367 80.7484, -87.3173 80.7484 C-87.9302 80.7484, -88.4884 80.825, -88.9919 80.9782 C-89.4954 81.1314, -89.9485 81.3153, -90.3512 81.5298 C-90.754 81.7443, -91.1086 81.9523, -91.4151 82.1537 C-92.0411 81.2212, -92.6672 80.2887, -93.2932 79.3562 C-92.5402 78.8133, -91.658 78.3624, -90.6467 78.0034 C-89.6354 77.6444, -88.4293 77.4649, -87.0284 77.4649 C-85.0496 77.4649, -83.4823 77.8633, -82.3265 78.6601 C-81.1707 79.4569, -80.5929 80.582, -80.5929 82.0355 Z " stroke="black" stroke-width="1" fill="none" />


<path d="M-22.8256 92.5612 C-23.5961 92.5612, -24.3666 92.5612, -25.1371 92.5612 C-25.1371 93.8877, -25.1371 95.2142, -25.1371 96.5407 C-26.4592 96.5407, -27.7814 96.5407, -29.1035 96.5407 C-29.1035 95.2142, -29.1035 93.8877, -29.1035 92.5612 C-31.8353 92.5612, -34.5671 92.5612, -37.299 92.5612 C-37.299 91.6199, -37.299 90.6787, -37.299 89.7374 C-34.4927 85.6047, -31.6865 81.4719, -28.8802 77.3392 C-27.6325 77.3392, -26.3848 77.3392, -25.1371 77.3392 C-25.1371 81.3625, -25.1371 85.3858, -25.1371 89.4091 C-24.3666 89.4091, -23.5961 89.4091, -22.8256 89.4091 C-22.8256 90.4598, -22.8256 91.5105, -22.8256 92.5612 Z " stroke="black" stroke-width="1" fill="none" />
<path d="M-29.1035 89.4091 C-29.1035 88.3234, -29.1035 87.2376, -29.1035 86.1519 C-29.1035 85.8455, -29.0969 85.4821, -29.0838 85.0618 C-29.0707 84.6415, -29.0553 84.2213, -29.0378 83.801 C-29.0203 83.3807, -29.0006 83.0064, -28.9787 82.678 C-28.9568 82.3497, -28.9415 82.1199, -28.9328 81.9885 C-28.9678 81.9885, -29.0028 81.9885, -29.0378 81.9885 C-29.2042 82.3475, -29.3793 82.6955, -29.5632 83.0326 C-29.747 83.3697, -29.9616 83.7222, -30.2067 84.0899 C-31.38 85.863, -32.5533 87.636, -33.7266 89.4091 C-32.1855 89.4091, -30.6445 89.4091, -29.1035 89.4091 Z " stroke="black" stroke-width="1" fill="none" />


<path d="M29.146 84.3356 C30.3192 84.3356, 31.3634 84.5589, 32.2784 85.0055 C33.1933 85.452, 33.9135 86.1087, 34.4389 86.9755 C34.9642 87.8424, 35.2269 88.9106, 35.2269 90.1802 C35.2269 91.5636, 34.9401 92.7566, 34.3666 93.7591 C33.7931 94.7617, 32.9394 95.53, 31.8055 96.0641 C30.6717 96.5982, 29.2598 96.8653, 27.5699 96.8653 C26.563 96.8653, 25.6152 96.7799, 24.7265 96.6091 C23.8377 96.4384, 23.0607 96.1779, 22.3952 95.8277 C22.3952 94.6588, 22.3952 93.4899, 22.3952 92.321 C23.0607 92.6712, 23.8596 92.9667, 24.7921 93.2075 C25.7246 93.4483, 26.6024 93.5687, 27.4254 93.5687 C28.231 93.5687, 28.9096 93.4614, 29.4612 93.2469 C30.0128 93.0324, 30.4309 92.6997, 30.7154 92.2487 C31 91.7978, 31.1423 91.2221, 31.1423 90.5216 C31.1423 89.5848, 30.8271 88.8668, 30.1967 88.3677 C29.5662 87.8686, 28.5987 87.6191, 27.2941 87.6191 C26.795 87.6191, 26.2762 87.6672, 25.7378 87.7636 C25.1993 87.8599, 24.7505 87.9562, 24.3915 88.0525 C23.8531 87.7636, 23.3146 87.4746, 22.7761 87.1857 C23.0169 83.9241, 23.2577 80.6626, 23.4984 77.401 C26.9701 77.401, 30.4418 77.401, 33.9135 77.401 C33.9135 78.548, 33.9135 79.6951, 33.9135 80.8421 C31.6282 80.8421, 29.343 80.8421, 27.0577 80.8421 C26.9395 82.0985, 26.8213 83.355, 26.7031 84.6115 C27.0008 84.5502, 27.3247 84.4889, 27.675 84.4276 C28.0252 84.3663, 28.5155 84.3356, 29.146 84.3356 Z " stroke="black" stroke-width="1" fill="none" />


<path d="M79.1684 88.9201 C79.1684 87.8168, 79.2494 86.7245, 79.4114 85.6432 C79.5734 84.5618, 79.8557 83.5418, 80.2585 82.583 C80.6613 81.6243, 81.226 80.7749, 81.9528 80.0351 C82.6795 79.2952, 83.6032 78.7129, 84.724 78.2883 C85.8447 77.8636, 87.2019 77.6513, 88.7955 77.6513 C89.172 77.6513, 89.6119 77.6666, 90.1154 77.6973 C90.6189 77.7279, 91.0369 77.7783, 91.3697 77.8483 C91.3697 78.9297, 91.3697 80.011, 91.3697 81.0923 C91.0194 81.0135, 90.6451 80.9501, 90.2467 80.9019 C89.8483 80.8537, 89.4521 80.8297, 89.0581 80.8297 C87.4646 80.8297, 86.2322 81.0836, 85.361 81.5914 C84.4898 82.0993, 83.8769 82.8019, 83.5223 83.6994 C83.1676 84.5969, 82.9597 85.641, 82.8984 86.8318 C82.9553 86.8318, 83.0122 86.8318, 83.0691 86.8318 C83.3143 86.4028, 83.6229 86.0219, 83.9951 85.6892 C84.3672 85.3564, 84.8203 85.0916, 85.3544 84.8946 C85.8885 84.6976, 86.5146 84.5991, 87.2325 84.5991 C88.3533 84.5991, 89.3252 84.8377, 90.1482 85.3148 C90.9713 85.792, 91.6061 86.4816, 92.0526 87.3834 C92.4992 88.2853, 92.7224 89.3841, 92.7224 90.68 C92.7224 92.0634, 92.4554 93.2542, 91.9213 94.2524 C91.3872 95.2505, 90.632 96.0145, 89.6557 96.5442 C88.6794 97.0739, 87.5215 97.3388, 86.1818 97.3388 C85.2012 97.3388, 84.2862 97.1703, 83.4369 96.8332 C82.5876 96.4961, 81.8433 95.9816, 81.2041 95.2899 C80.565 94.5982, 80.0659 93.7248, 79.7069 92.6698 C79.3479 91.6147, 79.1684 90.3648, 79.1684 88.9201 Z " stroke="black" stroke-width="1" fill="none" />
<path d="M86.103 94.0948 C86.8998 94.0948, 87.5477 93.8233, 88.0468 93.2805 C88.5459 92.7376, 88.7955 91.8883, 88.7955 90.7325 C88.7955 89.7956, 88.5787 89.058, 88.1453 88.5195 C87.7119 87.981, 87.0574 87.7118, 86.1818 87.7118 C85.5864 87.7118, 85.0633 87.8453, 84.6124 88.1123 C84.1614 88.3794, 83.8134 88.7165, 83.5682 89.1236 C83.3231 89.5308, 83.2005 89.9489, 83.2005 90.3779 C83.2005 90.8245, 83.2618 91.2666, 83.3843 91.7044 C83.5069 92.1422, 83.6908 92.5406, 83.936 92.8996 C84.1811 93.2586, 84.4854 93.5475, 84.8488 93.7664 C85.2121 93.9853, 85.6302 94.0948, 86.103 94.0948 Z " stroke="black" stroke-width="1" fill="none" />


<path d="M140.384 97.0041 C142.788 91.7419, 145.191 86.4796, 147.595 81.2174 C144.438 81.2174, 141.282 81.2174, 138.125 81.2174 C138.125 80.0791, 138.125 78.9408, 138.125 77.8026 C142.718 77.8026, 147.31 77.8026, 151.903 77.8026 C151.903 78.6519, 151.903 79.5012, 151.903 80.3505 C149.482 85.9017, 147.061 91.4529, 144.64 97.0041 C143.221 97.0041, 141.803 97.0041, 140.384 97.0041 Z " stroke="black" stroke-width="1" fill="none" />


<path d="M201.85 77.9445 C202.953 77.9445, 203.971 78.1152, 204.903 78.4567 C205.836 78.7982, 206.582 79.3126, 207.143 79.9999 C207.703 80.6872, 207.983 81.5475, 207.983 82.5807 C207.983 83.3512, 207.832 84.0254, 207.53 84.6033 C207.228 85.1812, 206.819 85.6868, 206.302 86.1202 C205.786 86.5536, 205.199 86.9323, 204.542 87.2563 C205.225 87.6153, 205.873 88.0334, 206.486 88.5106 C207.099 88.9878, 207.6 89.5459, 207.99 90.1851 C208.38 90.8243, 208.574 91.5685, 208.574 92.4179 C208.574 93.4861, 208.29 94.412, 207.721 95.1956 C207.152 95.9793, 206.364 96.5856, 205.357 97.0147 C204.35 97.4437, 203.181 97.6582, 201.85 97.6582 C200.414 97.6582, 199.192 97.4525, 198.186 97.0409 C197.179 96.6294, 196.413 96.0406, 195.887 95.2744 C195.362 94.5083, 195.099 93.5911, 195.099 92.5229 C195.099 91.6473, 195.263 90.8856, 195.592 90.2377 C195.92 89.5897, 196.364 89.0315, 196.925 88.5631 C197.485 88.0947, 198.102 87.6941, 198.777 87.3614 C198.207 87.0024, 197.689 86.5952, 197.22 86.1399 C196.752 85.6846, 196.38 85.1636, 196.104 84.577 C195.828 83.9904, 195.69 83.3162, 195.69 82.5544 C195.69 81.5387, 195.977 80.6894, 196.55 80.0065 C197.124 79.3235, 197.879 78.8091, 198.816 78.4632 C199.753 78.1174, 200.764 77.9445, 201.85 77.9445 Z " stroke="black" stroke-width="1" fill="none" />
<path d="M201.824 80.9127 C201.158 80.9127, 200.607 81.0834, 200.169 81.4249 C199.731 81.7664, 199.512 82.248, 199.512 82.8696 C199.512 83.3074, 199.619 83.6905, 199.834 84.0188 C200.048 84.3472, 200.333 84.6339, 200.688 84.8791 C201.042 85.1242, 201.43 85.3519, 201.85 85.562 C202.253 85.3694, 202.629 85.1549, 202.979 84.9185 C203.33 84.6821, 203.614 84.3975, 203.833 84.0648 C204.052 83.7321, 204.161 83.3337, 204.161 82.8696 C204.161 82.248, 203.94 81.7664, 203.498 81.4249 C203.056 81.0834, 202.498 80.9127, 201.824 80.9127 Z " stroke="black" stroke-width="1" fill="none" />
<path d="M198.855 92.2865 C198.855 92.9782, 199.103 93.5495, 199.597 94.0005 C200.092 94.4514, 200.825 94.6769, 201.797 94.6769 C202.804 94.6769, 203.557 94.4602, 204.056 94.0267 C204.555 93.5933, 204.805 93.022, 204.805 92.3128 C204.805 91.8225, 204.663 91.3934, 204.378 91.0257 C204.094 90.6579, 203.737 90.3274, 203.308 90.0341 C202.879 89.7408, 202.445 89.4671, 202.007 89.2132 C201.889 89.1519, 201.771 89.0906, 201.653 89.0293 C201.093 89.2833, 200.604 89.5678, 200.188 89.883 C199.773 90.1983, 199.446 90.5529, 199.21 90.9469 C198.974 91.3409, 198.855 91.7874, 198.855 92.2865 Z " stroke="black" stroke-width="1" fill="none" />


<path d="M189.048 15.1787 C192.042 13.9485, 195.037 12.7183, 198.031 11.4881 C195.037 10.1003, 192.042 8.71254, 189.048 7.32474 C189.048 6.27404, 189.048 5.22334, 189.048 4.17264 C193.395 6.34409, 197.742 8.51554, 202.089 10.687 C202.089 11.313, 202.089 11.9391, 202.089 12.5651 C197.742 14.4826, 193.395 16.4002, 189.048 18.3177 C189.048 17.2714, 189.048 16.2251, 189.048 15.1787 Z " stroke="black" stroke-width="1" fill="none" />
<path d="M204.428 15.1787 C207.422 13.9485, 210.417 12.7183, 213.411 11.4881 C210.417 10.1003, 207.422 8.71254, 204.428 7.32474 C204.428 6.27404, 204.428 5.22334, 204.428 4.17264 C208.775 6.34409, 213.122 8.51554, 217.47 10.687 C217.47 11.313, 217.47 11.9391, 217.47 12.5651 C213.122 14.4826, 208.775 16.4002, 204.428 18.3177 C204.428 17.2714, 204.428 16.2251, 204.428 15.1787 Z " stroke="black" stroke-width="1" fill="none" />


<path d="M-202.427 0.0827696 C-200.685 0.0827696, -199.247 0.29291, -198.113 0.71319 C-196.979 1.13347, -196.136 1.76827, -195.585 2.61758 C-195.033 3.4669, -194.757 4.53949, -194.757 5.83535 C-194.757 6.71094, -194.924 7.47707, -195.256 8.13376 C-195.589 8.79045, -196.027 9.34645, -196.57 9.80175 C-197.113 10.2571, -197.699 10.6292, -198.33 10.9181 C-196.447 13.7069, -194.565 16.4956, -192.682 19.2843 C-194.188 19.2843, -195.694 19.2843, -197.2 19.2843 C-198.728 16.8283, -200.256 14.3723, -201.784 11.9163 C-202.506 11.9163, -203.228 11.9163, -203.951 11.9163 C-203.951 14.3723, -203.951 16.8283, -203.951 19.2843 C-205.308 19.2843, -206.665 19.2843, -208.022 19.2843 C-208.022 12.8838, -208.022 6.48329, -208.022 0.0827696 C-206.157 0.0827696, -204.292 0.0827696, -202.427 0.0827696 Z " stroke="black" stroke-width="1" fill="none" />
<path d="M-202.716 3.41874 C-203.128 3.41874, -203.539 3.41874, -203.951 3.41874 C-203.951 5.14802, -203.951 6.8773, -203.951 8.60658 C-203.513 8.60658, -203.075 8.60658, -202.637 8.60658 C-201.289 8.60658, -200.324 8.38111, -199.741 7.93019 C-199.159 7.47926, -198.868 6.81601, -198.868 5.94042 C-198.868 5.02982, -199.181 4.38189, -199.807 3.99663 C-200.433 3.61137, -201.403 3.41874, -202.716 3.41874 Z " stroke="black" stroke-width="1" fill="none" />


</svg>
